<?xml version="1.0" standalone="no"?>
<!DOCTYPE svg PUBLIC "-//W3C//DTD SVG 20010904//EN"
 "http://www.w3.org/TR/2001/REC-SVG-20010904/DTD/svg10.dtd">
<svg version="1.0" xmlns="http://www.w3.org/2000/svg"
 width="640.000000pt" height="640.000000pt" viewBox="0 0 640.000000 640.000000"
 preserveAspectRatio="xMidYMid meet">

<g transform="translate(0.000000,640.000000) scale(0.100000,-0.100000)"
fill="#000000" stroke="none">
<path d="M0 3978 c1 -1905 3 -2419 13 -2403 51 86 229 273 284 298 13 6 23 14
23 19 0 4 5 8 12 8 6 0 26 11 44 25 18 14 35 25 39 25 3 0 22 11 43 24 52 32
180 99 222 115 33 13 61 24 132 55 18 7 54 22 80 32 27 11 48 23 48 28 0 5
-16 29 -36 53 -25 31 -38 57 -40 84 -4 37 8 53 20 27 3 -7 3 0 -1 16 -5 26 -4
28 18 21 l24 -7 -25 22 c-22 20 -23 22 -4 16 26 -8 64 23 64 52 0 11 7 22 15
26 17 6 21 46 5 46 -5 0 -10 9 -10 20 0 11 5 20 10 20 6 0 10 -9 10 -19 0 -20
17 -31 37 -24 7 3 13 12 13 20 0 9 9 24 21 34 11 10 19 22 17 26 -5 10 39 53
46 45 3 -3 6 4 6 16 0 13 6 22 15 22 8 0 15 9 15 20 0 11 5 20 10 20 6 0 10 9
10 20 0 11 5 20 10 20 6 0 10 14 10 30 0 17 5 30 11 30 6 0 8 7 5 16 -4 11 -1
14 13 9 25 -8 44 19 39 55 -2 16 0 31 6 33 7 3 7 8 2 13 -5 5 -11 4 -13 -3 -3
-7 -8 -13 -13 -13 -13 0 -17 23 -9 50 8 24 9 24 5 -3 -2 -17 1 -26 8 -24 6 2
12 16 14 31 3 24 7 27 28 22 13 -4 24 -2 24 3 0 5 -11 11 -25 13 -14 3 -25 1
-25 -3 0 -15 -20 -10 -27 7 -3 9 0 20 8 25 17 10 20 47 8 119 -6 34 -5 68 1
89 8 28 6 38 -11 59 -18 23 -18 28 -5 38 9 6 12 15 7 20 -12 12 -20 155 -9
148 10 -7 9 -22 17 154 5 104 12 156 20 161 8 6 10 20 6 45 -5 24 -3 36 4 36
6 0 11 9 11 20 0 18 10 25 33 21 12 -2 8 17 -5 22 -10 4 -10 6 0 6 6 1 12 8
12 16 0 8 5 15 10 15 6 0 8 11 4 25 -3 14 -1 31 5 39 6 7 8 22 4 31 -4 13 -3
16 5 11 8 -5 12 3 12 23 0 17 5 31 11 31 6 0 10 12 9 28 -4 53 0 73 12 66 8
-5 9 0 5 15 -6 24 20 91 35 91 4 0 8 11 8 25 0 14 9 34 20 45 11 11 20 30 20
43 0 13 6 29 13 36 6 8 7 11 1 8 -13 -7 -13 101 0 122 5 8 4 16 -4 21 -9 5 0
14 26 26 65 31 93 69 100 137 1 17 42 54 55 50 3 -1 12 10 20 25 7 15 22 39
32 54 10 15 19 37 20 47 0 11 5 17 9 15 4 -3 8 1 8 10 0 8 6 17 13 20 10 5 10
7 0 12 -18 8 -16 24 2 24 8 0 15 9 15 20 0 11 -5 20 -11 20 -5 0 -7 5 -3 11 3
6 1 21 -5 32 -6 12 -17 63 -26 112 -8 50 -19 111 -25 138 -14 69 -21 233 -10
259 6 17 9 -2 9 -65 1 -49 5 -107 10 -130 5 -23 15 -69 21 -102 13 -65 62
-184 68 -166 2 6 12 11 23 11 10 0 19 5 19 10 0 6 7 10 14 10 8 0 28 17 43 38
15 20 30 39 33 42 3 3 18 26 33 52 15 26 33 53 40 60 7 7 50 69 97 138 46 69
87 126 91 128 20 9 29 72 19 133 -25 158 3 324 76 452 13 23 24 45 24 50 0 4
-529 7 -1175 7 l-1175 0 0 -2422z m240 -688 c0 -20 -5 -30 -15 -30 -17 0 -18
4 -9 38 9 32 24 27 24 -8z m210 -82 c0 -5 -4 -8 -10 -8 -5 0 -10 10 -10 23 0
18 2 19 10 7 5 -8 10 -18 10 -22z m-130 -178 c0 -5 -4 -10 -10 -10 -5 0 -10
-4 -10 -10 0 -18 18 -11 25 10 8 27 23 25 30 -3 5 -19 11 -22 46 -19 37 4 39
2 39 -23 0 -30 -31 -68 -38 -47 -2 6 -9 12 -15 12 -8 0 -7 -4 1 -12 21 -21 13
-28 -29 -28 -37 0 -40 -2 -35 -22 3 -13 3 -17 0 -10 -8 18 -21 15 -27 -8 -3
-12 1 -24 11 -30 15 -8 15 -11 2 -20 -20 -13 -40 -13 -40 1 0 6 7 9 15 5 8 -3
15 -1 15 4 0 6 -4 10 -9 10 -5 0 -11 11 -13 25 -3 13 -1 22 3 19 5 -3 9 6 9
20 0 13 6 26 13 29 7 2 8 8 3 13 -5 5 -11 4 -13 -4 -3 -7 -14 -22 -26 -32 -18
-17 -19 -23 -8 -46 13 -29 6 -48 -9 -24 -6 8 -10 10 -10 4 0 -6 -7 -11 -15
-11 -13 0 -13 3 0 23 8 13 15 30 15 38 0 8 6 17 13 20 10 5 10 7 0 12 -21 9
-16 62 7 76 11 7 20 21 20 30 0 11 8 18 20 18 11 0 20 -4 20 -10z m930 -100
c0 -16 -4 -30 -10 -30 -5 0 -10 14 -10 30 0 17 5 30 10 30 6 0 10 -13 10 -30z
m-284 -66 c-18 -18 -26 -18 -26 0 0 15 20 26 33 19 4 -2 1 -11 -7 -19z m-594
-46 c3 -19 0 -23 -21 -24 -14 -1 -20 1 -13 3 6 3 12 16 12 29 0 30 16 24 22
-8z m502 14 c3 -5 -14 -9 -37 -10 -32 -1 -37 1 -22 8 26 11 52 12 59 2z m66
-14 c0 -10 5 -18 10 -18 6 0 10 -9 10 -20 0 -11 -7 -20 -16 -20 -8 0 -12 5 -9
10 3 6 1 10 -4 10 -10 0 -16 -28 -12 -59 2 -7 -3 -10 -9 -6 -6 4 -8 16 -5 28
2 12 2 16 -1 10 -8 -18 -64 -17 -64 1 0 21 62 82 83 82 10 0 17 -8 17 -18z
m-589 -120 l2 -23 4 23 c3 14 12 22 25 22 18 0 20 -4 14 -31 -3 -17 -6 -38 -6
-46 0 -11 -7 -13 -31 -8 -22 5 -34 3 -40 -6 -4 -7 -12 -10 -16 -5 -4 5 -2 11
5 13 7 3 12 22 12 44 0 28 4 39 15 39 8 0 16 -10 16 -22z m589 -228 c0 -5 -4
-10 -10 -10 -5 0 -10 5 -10 10 0 6 5 10 10 10 6 0 10 -4 10 -10z m-93 -142
c-3 -7 -5 -2 -5 12 0 14 2 19 5 13 2 -7 2 -19 0 -25z"/>
<path d="M330 3010 c0 -5 5 -10 10 -10 6 0 10 5 10 10 0 6 -4 10 -10 10 -5 0
-10 -4 -10 -10z"/>
<path d="M340 2970 c0 -5 5 -10 10 -10 6 0 10 5 10 10 0 6 -4 10 -10 10 -5 0
-10 -4 -10 -10z"/>
<path d="M2382 6368 c-33 -54 -60 -120 -76 -184 -18 -69 -21 -239 -6 -279 9
-25 11 -25 28 -8 10 10 32 36 48 58 16 22 31 42 34 45 3 3 40 48 82 100 126
157 155 183 56 50 -51 -69 -124 -171 -161 -227 l-68 -102 15 -43 c30 -86 113
-239 151 -279 8 -9 15 -19 15 -23 0 -13 71 -101 160 -199 25 -27 49 -56 53
-64 10 -17 2 -43 -14 -43 -23 0 -172 170 -245 281 -31 46 -65 96 -75 110 -10
15 -24 42 -33 60 -8 19 -28 57 -44 86 l-29 52 -35 -47 c-89 -118 -238 -355
-238 -377 0 -8 -4 -15 -10 -15 -5 0 -10 -8 -10 -18 0 -10 -9 -24 -20 -32 -11
-8 -20 -22 -20 -32 0 -10 -3 -18 -8 -18 -4 0 -14 -10 -21 -22 -24 -38 -15
-137 20 -215 48 -107 73 -158 82 -161 4 -2 7 -12 7 -21 0 -10 8 -25 18 -34 10
-9 24 -32 32 -52 11 -28 19 -35 41 -35 15 0 29 -7 33 -16 3 -8 10 -13 14 -10
5 3 19 -4 31 -15 12 -11 26 -17 32 -13 15 9 1 -54 -19 -84 -18 -28 -11 -45 51
-124 l44 -57 29 30 c49 52 58 53 83 7 l21 -40 -26 -55 -27 -54 25 -27 c14 -15
39 -46 55 -69 17 -23 55 -70 86 -105 30 -35 65 -74 77 -88 28 -33 215 -234
261 -279 193 -195 343 -327 489 -435 58 -42 112 -83 121 -90 9 -8 26 -17 38
-21 20 -6 21 -3 21 60 0 42 4 64 10 60 6 -4 8 -9 6 -13 -7 -12 31 -151 45
-164 12 -11 29 -21 82 -46 4 -2 2 8 -5 22 -16 36 -3 44 27 16 15 -14 25 -35
25 -51 0 -25 7 -32 55 -54 31 -14 67 -25 80 -25 26 0 30 11 26 76 -3 48 14 49
29 1 33 -111 42 -138 45 -135 1 2 -1 35 -5 73 -5 39 -6 73 -3 78 2 4 0 7 -5 7
-5 0 -12 9 -15 20 -6 24 -3 25 18 4 20 -20 33 -11 15 11 -9 11 -10 18 -1 29 9
11 9 15 0 18 -7 2 -5 9 7 18 16 14 17 13 11 -2 -3 -10 -2 -18 3 -18 6 0 10
-13 10 -29 0 -17 4 -32 10 -36 5 -3 9 -25 8 -48 0 -23 6 -62 13 -87 l13 -45
11 107 c5 59 12 109 15 112 3 2 14 -2 24 -10 11 -7 17 -17 13 -20 -4 -4 -13
-1 -22 6 -13 10 -15 9 -15 -9 0 -11 3 -20 8 -20 4 1 19 1 33 0 25 -1 26 -3 27
-68 1 -37 5 -81 9 -98 l7 -30 7 30 c4 17 7 60 8 98 0 37 9 94 18 127 13 48 21
62 40 66 13 4 27 3 30 0 7 -6 -20 -104 -38 -138 -10 -20 -14 -281 -4 -297 3
-6 16 -11 27 -11 12 0 18 -3 15 -7 -10 -10 13 -33 33 -33 10 0 32 -12 49 -26
l31 -26 0 54 c-1 90 -34 286 -50 298 -4 3 -10 49 -12 103 -3 56 -2 93 3 85 7
-10 9 -8 9 7 1 25 33 65 53 65 8 0 18 7 21 16 3 8 10 13 15 9 14 -8 31 60 31
122 0 54 19 86 21 36 1 -22 3 -24 6 -6 3 14 11 21 24 20 10 -1 19 -5 19 -9 0
-4 7 -8 15 -8 8 0 15 5 15 10 0 7 6 7 19 0 15 -7 22 -7 28 3 4 7 21 18 37 25
24 11 27 15 15 23 -7 5 -9 9 -3 9 6 0 26 15 45 34 18 19 36 33 39 31 3 -2 6 5
7 15 1 11 24 43 52 71 28 29 51 61 51 71 0 10 7 18 15 18 8 0 15 5 15 11 0 5
6 7 13 3 9 -5 9 -4 1 5 -13 14 -7 51 7 51 5 0 9 7 9 15 0 7 7 18 17 23 11 7
16 21 15 46 -1 37 13 50 21 19 2 -10 3 -6 1 8 -2 14 5 37 14 50 9 13 17 28 18
34 0 5 2 16 2 23 1 6 8 12 15 12 8 0 13 21 15 62 2 34 8 66 14 69 6 4 11 32
10 63 0 31 3 56 7 56 3 0 8 30 10 68 12 249 10 292 -19 292 -10 0 -23 13 -30
31 -13 31 -9 40 24 52 10 3 9 144 -1 160 -3 5 -8 28 -10 51 -2 23 -8 52 -13
66 -4 14 -14 46 -21 73 -7 26 -16 47 -19 47 -3 0 -5 12 -4 28 2 39 -34 155
-117 377 -57 150 -177 396 -255 521 -24 39 -44 74 -44 79 0 11 69 -88 90 -130
6 -11 19 -33 30 -50 93 -146 224 -427 290 -625 5 -14 23 -63 40 -110 17 -47
33 -96 36 -110 62 -324 80 -393 109 -404 15 -6 15 -9 -3 -40 -18 -31 -20 -53
-21 -228 0 -106 -3 -214 -5 -240 -3 -27 -1 -48 2 -48 4 0 6 -19 4 -41 -3 -24
-7 -36 -12 -29 -4 7 -8 -23 -9 -66 -1 -44 -6 -81 -11 -82 -6 -2 -10 -22 -10
-45 0 -23 -9 -69 -20 -101 -11 -33 -20 -76 -20 -98 0 -28 -4 -38 -16 -38 -11
0 -14 -6 -9 -20 4 -11 2 -20 -4 -20 -6 0 -11 -9 -11 -20 0 -11 -5 -20 -10 -20
-6 0 -8 -11 -4 -25 5 -20 3 -24 -10 -19 -12 4 -16 1 -14 -12 3 -42 -3 -64 -18
-64 -11 0 -14 -6 -9 -20 4 -14 2 -20 -9 -20 -9 0 -13 -6 -10 -14 6 -15 -3 -29
-40 -66 -10 -10 -16 -25 -14 -32 3 -7 -1 -26 -8 -43 -7 -16 -13 -24 -14 -17 0
6 -6 12 -14 12 -9 0 -15 -15 -18 -46 -3 -39 0 -49 19 -64 13 -10 23 -25 23
-35 0 -9 16 -32 35 -51 22 -21 35 -43 35 -59 0 -14 5 -25 10 -25 6 0 10 -18
10 -40 0 -33 3 -40 20 -40 13 0 20 -7 20 -20 0 -12 7 -20 18 -20 9 0 24 -5 32
-10 13 -8 12 -11 -5 -23 -22 -17 -45 -12 -45 10 0 23 -71 88 -80 73 -6 -9 -13
-9 -29 -1 -12 7 -19 16 -16 22 4 5 -1 9 -9 9 -9 0 -16 9 -16 20 0 11 -7 20
-15 20 -8 0 -15 7 -15 15 0 25 -31 53 -53 47 -13 -3 -18 -1 -14 5 4 6 1 13 -7
16 -9 4 -17 -4 -21 -21 -4 -15 -9 -22 -12 -16 -7 19 -53 4 -53 -18 0 -14 -5
-18 -16 -14 -8 3 -26 -1 -39 -10 -27 -18 -42 -46 -19 -37 7 3 14 1 14 -5 0 -5
-12 -13 -27 -18 -60 -16 -73 -24 -73 -44 0 -20 37 -66 47 -57 3 4 -1 15 -10
25 -18 20 -23 52 -8 52 5 0 11 -13 15 -30 5 -27 26 -43 26 -20 0 6 -4 10 -10
10 -5 0 -10 9 -10 20 0 11 5 20 10 20 10 0 15 -27 12 -63 -1 -10 2 -16 6 -13
5 3 6 -8 4 -25 -3 -21 1 -35 15 -47 11 -9 22 -25 26 -34 8 -22 36 -24 43 -3 9
23 23 18 30 -10 7 -26 38 -35 47 -12 3 6 6 2 6 -10 1 -28 21 -31 21 -3 0 11 5
20 11 20 7 0 9 -11 6 -28 -6 -30 10 -67 20 -44 7 17 50 15 57 -3 8 -22 -3 -45
-23 -46 -12 0 -12 -2 -2 -6 7 -3 24 7 38 23 l25 29 -7 -30 c-5 -23 -4 -26 4
-15 9 12 11 10 11 -12 0 -16 5 -28 10 -28 6 0 10 9 10 20 0 11 5 20 10 20 6 0
10 -7 10 -15 0 -18 19 -20 21 -2 1 6 4 -4 8 -23 6 -33 8 -35 44 -32 23 2 37
-1 37 -8 0 -15 29 -44 37 -37 3 3 -2 13 -11 22 -22 23 -20 25 14 19 33 -7 74
21 51 35 -8 5 -11 22 -7 47 4 30 4 33 -3 14 l-9 -25 -1 26 c-1 29 -29 59 -54
59 -11 0 -17 8 -17 25 0 18 -5 25 -19 25 -14 0 -21 9 -26 31 -10 44 8 57 33
25 23 -30 52 -34 52 -8 0 14 2 15 10 2 8 -13 11 -13 19 -1 7 11 11 9 21 -8 7
-13 17 -20 26 -17 9 3 14 -1 14 -14 0 -11 4 -20 9 -20 5 0 13 -9 16 -20 5 -16
15 -20 53 -20 52 0 78 12 68 29 -4 6 -2 11 3 11 6 0 11 -9 11 -20 0 -27 18
-25 23 3 2 12 4 3 3 -20 0 -24 -4 -43 -8 -43 -4 0 -8 -27 -8 -60 0 -53 2 -60
20 -60 11 0 20 -7 20 -15 0 -8 10 -26 22 -40 18 -20 31 -25 71 -25 l50 0 -6
-60 c-4 -33 -3 -60 1 -60 4 0 13 -10 21 -21 11 -19 11 -21 -3 -16 -10 4 -16 1
-16 -9 0 -11 8 -14 28 -12 15 2 26 8 25 16 -4 15 13 16 22 2 4 -6 1 -17 -5
-25 -9 -11 -9 -15 -1 -15 6 0 11 5 11 10 0 6 9 10 19 10 10 0 21 7 25 15 9 25
24 17 18 -10 -2 -15 0 -25 7 -25 6 0 11 -12 12 -27 l1 -28 7 25 c4 14 4 27 -1
28 -11 5 -10 42 1 42 5 0 12 -6 14 -12 3 -7 6 3 7 22 2 32 3 33 9 10 5 -16 13
-24 24 -22 11 2 17 -4 17 -18 0 -11 4 -20 9 -20 18 0 41 -32 41 -56 0 -33 16
-30 23 4 8 34 24 59 33 50 3 -4 -1 -14 -10 -23 -22 -22 -20 -35 5 -35 15 0 19
4 14 19 -3 11 -1 22 5 26 5 3 10 17 10 31 0 13 4 24 10 24 5 0 9 -16 8 -35 -1
-19 2 -38 5 -42 4 -3 7 16 7 43 0 50 13 84 27 71 4 -5 1 -12 -7 -17 -8 -5 -11
-13 -6 -17 5 -4 11 -2 13 5 3 7 10 18 17 25 7 6 17 28 23 47 l11 35 2 -40 c2
-22 2 -58 2 -80 -1 -28 2 -35 9 -25 7 12 11 12 17 2 5 -7 15 -11 23 -9 8 2 11
2 8 0 -10 -6 1 -43 12 -43 5 0 10 -19 10 -42 1 -24 4 -33 6 -20 5 27 23 29 23
2 0 -11 5 -20 10 -20 6 0 10 9 10 20 0 28 20 25 21 -2 0 -22 1 -22 8 -3 5 11
7 39 4 63 -4 43 13 61 19 20 2 -13 9 -22 16 -21 7 2 12 -7 12 -20 -1 -21 -1
-21 -15 -3 -8 11 -18 16 -22 12 -4 -4 -1 -11 7 -16 12 -8 13 -13 2 -30 -7 -12
-8 -20 -2 -20 5 0 10 5 10 10 0 6 7 10 15 10 8 0 15 -4 15 -10 0 -5 7 -10 15
-10 9 0 15 9 15 23 0 17 -2 19 -10 7 -5 -8 -12 -11 -17 -7 -4 5 -2 11 4 15 6
4 13 16 16 27 4 18 5 18 6 -2 1 -31 31 -30 31 0 0 16 6 23 20 23 14 0 20 -7
20 -23 0 -13 5 -23 10 -23 6 0 15 -10 20 -23 l9 -22 0 23 c1 12 -3 22 -9 22
-5 0 -10 20 -10 45 0 25 -5 54 -12 64 -9 15 -8 22 5 35 8 9 20 16 25 16 4 0 7
15 6 32 -2 18 -1 25 2 15 8 -24 21 -21 28 6 3 12 6 932 6 2045 l0 2022 -1999
0 -1999 0 -20 -32z m728 -519 c25 -6 53 -12 64 -14 21 -5 49 -26 42 -32 -2 -3
-14 1 -26 7 -31 16 -43 18 -214 26 -86 4 -153 11 -150 15 7 13 230 11 284 -2z
m-200 -126 c0 -5 -25 -9 -56 -10 -35 -1 -62 -7 -73 -17 -19 -17 -41 -21 -41
-7 0 12 21 28 45 34 33 8 125 8 125 0z m193 -20 c-13 -2 -33 -2 -45 0 -13 2
-3 4 22 4 25 0 35 -2 23 -4z m72 -20 c18 -14 18 -15 2 -9 -10 3 -23 6 -28 6
-5 0 -9 5 -9 10 0 14 12 12 35 -7z m-142 -113 c10 -10 6 -11 -22 -6 -18 3 -40
6 -48 6 -8 0 -12 4 -9 8 8 13 65 7 79 -8z m20 -124 c34 -15 50 -36 27 -36 -5
0 -10 4 -10 9 0 13 -62 21 -179 24 -70 1 -96 6 -99 16 -7 20 208 9 261 -13z
m807 -34 c0 -13 -210 -222 -222 -222 -6 0 -1 12 13 28 97 110 189 202 201 202
5 0 8 -4 8 -8z m-11 -204 c-16 -32 -141 -158 -156 -158 -24 0 -13 16 69 98 82
83 108 100 87 60z m116 -151 c-16 -12 -41 -34 -56 -49 -14 -16 -30 -28 -34
-28 -5 0 14 23 42 50 28 28 57 50 64 50 8 0 1 -11 -16 -23z m-591 -435 c-64
-42 -135 -105 -144 -127 -6 -14 -9 -15 -9 -4 -1 19 104 129 124 129 8 0 15 4
15 9 0 9 19 17 45 20 6 0 -9 -11 -31 -27z m1413 -129 c-24 -46 -50 -69 -84
-76 -47 -9 -47 5 0 50 81 77 116 88 84 26z m-1257 -68 c0 -5 -5 -3 -10 5 -5 8
-10 20 -10 25 0 6 5 3 10 -5 5 -8 10 -19 10 -25z m76 10 c4 -14 4 -29 0 -32
-3 -4 -6 3 -6 13 0 11 -5 25 -12 32 -9 9 -9 12 0 12 6 0 14 -11 18 -25z m-926
-15 c0 -5 -2 -10 -4 -10 -3 0 -8 5 -11 10 -3 6 -1 10 4 10 6 0 11 -4 11 -10z
m37 -12 c-3 -8 -6 -5 -6 6 -1 11 2 17 5 13 3 -3 4 -12 1 -19z m793 -11 c0 -5
-4 -5 -10 -2 -5 3 -10 14 -10 23 0 15 2 15 10 2 5 -8 10 -19 10 -23z m-760 3
c0 -5 -2 -10 -4 -10 -3 0 -8 5 -11 10 -3 6 -1 10 4 10 6 0 11 -4 11 -10z m235
0 c-3 -5 -10 -10 -16 -10 -5 0 -9 5 -9 10 0 6 7 10 16 10 8 0 12 -4 9 -10z
m378 -41 c4 -16 3 -18 -9 -8 -7 6 -11 15 -8 20 8 13 11 11 17 -12z m108 -339
l6 -25 11 28 c6 15 13 27 16 27 19 0 36 -16 36 -32 0 -17 2 -18 15 -8 13 11
30 7 98 -23 45 -19 90 -38 101 -41 16 -5 17 -13 12 -47 -11 -71 -91 -195 -128
-201 -17 -2 -21 -11 -24 -50 -1 -26 -5 -60 -8 -76 -6 -26 -10 -28 -46 -26 -28
1 -43 -3 -50 -15 -9 -14 -11 -14 -22 4 -13 20 -14 27 -18 123 l-3 54 -53 -4
c-30 -1 -55 0 -57 4 -1 5 -25 9 -52 11 -28 2 -56 7 -63 11 -7 4 -12 2 -12 -5
0 -10 -3 -10 -12 -1 -7 7 -22 12 -34 12 -23 0 -64 46 -64 72 0 7 -11 43 -24
79 -22 62 -24 84 -12 114 4 11 11 11 35 2 21 -8 45 -8 88 0 94 17 105 14 130
-37 l22 -45 2 35 c1 19 1 39 0 43 -1 5 3 6 9 2 17 -11 48 4 53 26 8 28 39 21
48 -11z m702 -39 c4 -1 14 -1 22 -1 8 0 15 -7 15 -15 0 -20 -10 -19 -26 3 -8
10 -13 12 -14 5 0 -16 -27 -6 -34 13 -4 11 -1 12 12 5 9 -5 20 -9 25 -10z m67
-27 c0 -8 -4 -12 -10 -9 -5 3 -10 10 -10 16 0 5 5 9 10 9 6 0 10 -7 10 -16z
m77 -16 c18 -7 33 -18 33 -26 0 -8 -5 -10 -12 -5 -7 4 -17 8 -23 8 -16 2 -65
24 -65 30 0 9 32 6 67 -7z m-586 -274 c7 -4 9 -24 5 -58 -11 -84 -15 -94 -37
-89 -10 3 -19 9 -19 14 0 5 -9 9 -20 9 -12 0 -20 7 -20 18 -1 9 -3 34 -6 55
-9 58 -1 69 46 63 22 -3 45 -8 51 -12z m419 -596 c0 -10 -4 -18 -10 -18 -5 0
-10 7 -10 15 0 9 -8 28 -17 43 l-17 27 27 -24 c15 -14 27 -33 27 -43z m10 42
c0 -5 -2 -10 -4 -10 -3 0 -8 5 -11 10 -3 6 -1 10 4 10 6 0 11 -4 11 -10z
m1018 -34 c-2 -15 -10 -21 -27 -21 -30 0 -37 17 -16 38 20 21 47 10 43 -17z
m-548 -125 c0 -17 -18 -21 -24 -6 -3 9 0 15 9 15 8 0 15 -4 15 -9z m-50 -65
c0 -3 -4 -8 -10 -11 -5 -3 -10 -1 -10 4 0 6 5 11 10 11 6 0 10 -2 10 -4z m360
-41 c7 -9 8 -15 2 -15 -5 0 -12 7 -16 15 -3 8 -4 15 -2 15 2 0 9 -7 16 -15z
m1417 -91 c4 -13 -24 -51 -32 -43 -10 10 6 60 18 56 6 -2 12 -8 14 -13z m-999
-31 c-4 -20 -58 -28 -58 -8 0 18 11 25 37 25 18 0 24 -5 21 -17z m-648 -23 c0
-11 -4 -20 -10 -20 -5 0 -10 9 -10 20 0 11 5 20 10 20 6 0 10 -9 10 -20z m80
-70 c0 -5 -4 -10 -10 -10 -5 0 -10 5 -10 10 0 6 5 10 10 10 6 0 10 -4 10 -10z
m1570 -195 c0 -27 -28 -67 -42 -59 -13 8 -9 38 8 62 20 29 34 28 34 -3z m-716
-153 c3 -5 -8 -9 -24 -9 -16 0 -27 4 -24 9 3 4 14 8 24 8 10 0 21 -4 24 -8z
m596 -22 c0 -13 -7 -20 -20 -20 -13 0 -20 7 -20 20 0 13 7 20 20 20 13 0 20
-7 20 -20z m-206 -6 c9 -24 7 -27 -9 -10 -17 17 -19 26 -6 26 5 0 12 -7 15
-16z"/>
<path d="M3380 3963 c0 -26 1 -26 15 -7 19 25 19 34 0 34 -10 0 -15 -10 -15
-27z"/>
<path d="M3490 3556 c0 -9 5 -16 10 -16 6 0 10 4 10 9 0 6 -4 13 -10 16 -5 3
-10 -1 -10 -9z"/>
<path d="M1866 5261 c-4 -7 -5 -15 -2 -18 9 -9 19 4 14 18 -4 11 -6 11 -12 0z"/>
<path d="M1823 5020 c-3 -11 -9 -20 -14 -20 -5 0 -9 -9 -9 -19 0 -11 -11 -32
-25 -47 -30 -32 -42 -86 -26 -120 6 -14 11 -49 11 -79 0 -44 4 -56 20 -65 31
-17 24 -26 -21 -27 -22 -1 -47 -7 -55 -14 -8 -6 -17 -9 -21 -6 -11 12 -43 -14
-43 -34 0 -16 -4 -19 -20 -14 -18 6 -20 2 -20 -34 0 -23 -4 -41 -10 -41 -5 0
-10 -11 -10 -24 0 -35 -10 -56 -27 -56 -10 0 -12 -6 -8 -19 3 -10 0 -25 -7
-33 -25 -27 -35 -53 -36 -98 -1 -25 -7 -46 -12 -48 -6 -2 -10 -31 -10 -65 0
-40 -3 -57 -9 -48 -5 8 -9 -49 -10 -144 -1 -87 -4 -162 -7 -166 -3 -5 -2 -14
2 -21 4 -7 7 -31 5 -55 -1 -26 2 -43 8 -43 6 0 11 -18 11 -40 0 -22 5 -40 10
-40 6 0 10 -18 10 -40 0 -22 5 -40 10 -40 6 0 10 -7 10 -15 0 -8 4 -23 9 -33
6 -9 13 -38 16 -64 3 -27 10 -48 16 -48 5 0 9 -9 9 -20 0 -17 7 -20 53 -20 42
0 58 5 79 25 15 14 31 25 36 25 5 0 12 9 15 21 3 12 10 18 17 14 6 -4 20 3 30
15 12 13 24 19 32 14 7 -4 10 -4 6 1 -7 7 32 45 47 45 10 0 65 60 65 71 0 4 6
6 14 3 14 -5 40 15 49 38 4 10 8 9 16 -2 10 -13 12 -13 22 0 9 13 10 12 5 -3
-3 -10 -6 -25 -6 -33 0 -8 -4 -14 -10 -14 -5 0 -10 9 -10 20 0 11 -4 20 -8 20
-14 0 -10 -59 4 -62 10 -2 11 -7 4 -18 -9 -13 -11 -13 -20 0 -8 13 -10 13 -10
-2 0 -9 -6 -19 -12 -22 -10 -5 -10 -7 0 -12 22 -10 13 -24 -17 -24 -16 0 -32
-6 -34 -12 -4 -10 -8 -9 -16 2 -5 8 -13 11 -18 7 -4 -5 -1 -12 6 -17 12 -7 11
-11 -4 -27 -13 -13 -20 -14 -23 -5 -2 6 -8 12 -14 12 -6 0 -6 -6 2 -15 14 -16
6 -35 -16 -35 -8 0 -14 -5 -14 -10 0 -17 -47 -60 -65 -60 -14 0 -20 -21 -16
-62 2 -11 -5 -18 -14 -18 -12 0 -15 -6 -10 -22 4 -15 3 -19 -3 -10 -12 18 -35
-10 -29 -35 3 -13 5 -11 6 7 l2 25 14 -25 c8 -14 14 -33 15 -42 0 -10 5 -18
11 -18 6 0 8 -9 4 -20 -6 -18 -2 -20 39 -20 35 0 46 -4 46 -16 0 -23 25 -44
54 -44 19 0 26 -5 26 -19 0 -10 7 -24 15 -31 9 -8 15 -8 15 -2 0 6 -6 13 -12
15 -10 4 -10 8 -2 14 7 4 14 17 17 28 4 18 5 18 6 -2 1 -21 6 -23 61 -23 l60
0 0 -37 c0 -35 0 -36 20 -18 11 10 20 25 20 34 0 14 2 14 10 1 8 -13 11 -12
25 5 16 19 16 19 10 -5 -4 -17 -3 -21 3 -11 8 10 14 11 32 1 l23 -12 -21 35
c-12 19 -22 38 -22 43 0 5 9 -6 20 -23 15 -25 27 -33 49 -33 24 0 30 5 34 29
6 27 9 29 39 24 29 -4 34 -2 35 16 2 19 0 20 -13 6 -19 -19 -20 -19 -20 4 0
11 4 17 8 15 5 -3 22 1 38 10 17 8 30 10 30 5 0 -19 19 -8 23 14 l4 22 2 -22
c0 -13 6 -23 11 -23 6 0 10 -9 10 -20 0 -27 18 -25 23 3 l4 22 2 -22 c0 -13 6
-23 11 -23 6 0 10 -9 10 -20 0 -11 -5 -20 -12 -20 -6 0 -9 -2 -7 -5 3 -2 15
-2 26 1 19 5 21 11 16 36 -5 24 -3 30 8 26 14 -5 15 -9 18 -49 0 -11 6 -17 11
-14 6 3 10 -3 10 -14 0 -12 -5 -21 -11 -21 -5 0 -7 -5 -4 -10 4 -6 11 -8 16
-5 5 4 9 1 9 -6 0 -11 91 -206 111 -239 9 -14 34 -68 62 -132 7 -16 15 -28 19
-28 5 0 8 -8 8 -19 0 -10 7 -25 16 -32 9 -7 20 -24 25 -37 5 -13 14 -20 20
-16 6 3 21 2 32 -4 38 -18 91 -34 127 -38 19 -3 72 -11 117 -19 45 -9 95 -14
110 -13 16 1 34 -1 41 -6 7 -4 12 -2 12 5 0 8 4 8 13 1 7 -6 41 -13 76 -16 36
-3 68 -11 72 -18 13 -21 22 18 16 67 -8 72 17 50 45 -40 12 -38 15 -40 56 -43
l44 -3 -8 58 c-11 81 -9 162 4 175 8 8 19 6 38 -7 l27 -18 -6 129 c-4 71 -11
145 -16 164 -5 19 -12 66 -16 105 -8 81 -10 85 -35 85 -13 0 -21 9 -25 25 -3
14 -7 35 -10 48 -3 12 -34 44 -71 72 -37 28 -99 77 -138 110 -39 34 -83 70
-98 81 -37 29 -132 110 -187 161 -52 48 -54 49 -72 27 -10 -13 -10 -17 1 -24
7 -4 13 -22 14 -39 1 -20 7 -33 18 -36 16 -6 40 -57 93 -200 15 -38 42 -105
61 -147 19 -43 34 -82 34 -87 0 -5 4 -11 8 -13 9 -3 71 -97 104 -158 54 -97
93 -160 99 -160 8 0 -4 61 -16 80 -6 9 -3 9 13 1 25 -13 46 -73 39 -109 -3
-15 2 -47 12 -72 16 -45 17 -90 1 -90 -4 0 -17 17 -28 38 -24 46 -78 145 -92
169 -5 10 -15 29 -20 43 -6 14 -18 39 -28 55 -75 123 -154 277 -182 355 -13
36 -27 70 -30 75 -21 29 -110 207 -110 220 0 8 -8 19 -19 24 -26 14 -48 52
-57 96 -7 37 -6 38 20 33 14 -3 26 -2 26 1 -1 17 -202 211 -220 211 -6 0 -9 4
-5 9 3 5 -6 18 -20 29 -14 11 -25 22 -25 26 0 3 -12 18 -27 34 -60 63 -148
165 -157 181 -5 9 -15 20 -22 24 -8 4 -28 29 -46 55 -32 46 -39 56 -88 116
-14 17 -44 59 -65 93 -22 35 -43 63 -47 63 -5 0 -8 6 -8 13 0 15 -74 97 -88
97 -13 0 -52 36 -52 48 0 5 -11 17 -25 26 -14 9 -23 21 -20 26 4 6 0 10 -8 10
-8 0 -22 10 -33 21 -19 22 -19 22 6 15 14 -3 19 -3 13 0 -20 9 -15 34 7 34 17
0 14 11 -30 98 -26 53 -63 127 -81 165 -17 37 -36 67 -40 67 -5 0 -9 9 -9 20
0 12 -7 20 -16 20 -9 0 -18 -9 -21 -20z m607 -1142 c0 -19 -2 -20 -10 -8 -13
19 -13 30 0 30 6 0 10 -10 10 -22z m-28 -47 c17 -14 24 -29 20 -39 -3 -10 -7
-12 -10 -4 -4 12 -52 -38 -52 -54 0 -5 5 -2 10 6 6 9 10 10 10 3 0 -6 -13 -18
-28 -26 l-28 -14 -17 55 c-16 53 -14 88 4 61 6 -11 9 -9 9 7 0 11 3 24 6 27
12 12 49 2 76 -22z m-126 -48 c-4 -9 -1 -20 6 -24 10 -7 10 -11 0 -21 -6 -6
-12 -19 -11 -27 0 -11 4 -8 11 7 13 26 33 30 23 5 -4 -10 -10 -24 -13 -32 -4
-10 -1 -13 12 -8 9 4 15 3 12 -2 -3 -4 -28 -7 -56 -5 -49 4 -51 3 -46 -18 3
-13 3 -17 0 -10 -12 26 -26 12 -21 -20 l6 -33 -17 33 c-17 31 -19 31 -40 16
-12 -8 -22 -11 -22 -5 0 5 9 13 20 16 11 3 20 12 20 18 0 7 4 6 10 -3 8 -13
11 -13 22 1 18 22 46 31 52 16 3 -9 5 -9 5 0 1 6 -6 18 -14 27 -9 9 -11 17 -5
21 5 3 10 0 10 -7 0 -8 6 -6 18 6 12 13 13 20 5 23 -10 3 -10 9 0 24 15 23 21
25 13 2z m-76 -308 c0 -8 -4 -15 -10 -15 -5 0 -7 7 -4 15 4 8 8 15 10 15 2 0
4 -7 4 -15z m-50 -65 c0 -5 -7 -10 -15 -10 -8 0 -15 5 -15 10 0 6 7 10 15 10
8 0 15 -4 15 -10z m-20 -32 c0 -4 -4 -8 -9 -8 -6 0 -12 4 -15 8 -3 5 1 9 9 9
8 0 15 -4 15 -9z m-54 -93 c-4 -25 -11 -45 -17 -45 -5 0 -9 -8 -9 -18 0 -22
-9 -33 -22 -26 -5 3 -4 12 3 20 6 8 9 17 6 21 -4 3 0 11 9 17 8 6 16 25 18 41
2 17 4 34 5 39 0 5 4 7 7 3 4 -3 3 -27 0 -52z m1107 -97 c23 -24 31 -40 29
-60 -3 -28 12 -39 21 -15 4 9 8 8 16 -3 5 -8 7 -17 3 -20 -4 -3 -8 -16 -10
-29 -2 -19 2 -22 18 -18 24 6 36 -8 14 -17 -9 -4 -23 -1 -30 5 -11 9 -14 9
-14 0 0 -7 -4 -9 -10 -6 -14 9 -12 35 3 33 6 -2 12 4 12 12 0 9 -8 14 -20 13
-15 -1 -25 8 -38 38 -9 21 -17 46 -17 53 0 8 -4 18 -10 21 -10 6 -14 25 -5 25
3 0 20 -15 38 -32z m-1155 -54 c-3 -14 -5 -12 -10 9 -3 19 -2 25 4 19 6 -6 8
-18 6 -28z m-17 -106 c-4 -50 -5 -51 -11 -18 -6 37 -2 70 9 70 3 0 4 -24 2
-52z m1298 -63 c0 -5 -4 -3 -9 7 -6 10 -18 14 -30 11 -11 -3 -20 -1 -20 5 0
17 34 19 47 2 7 -8 12 -19 12 -25z m-1069 0 c0 -5 -5 -3 -10 5 -5 8 -10 20
-10 25 0 6 5 3 10 -5 5 -8 10 -19 10 -25z m1078 -25 c7 0 13 -6 13 -12 1 -7 2
-17 4 -23 1 -5 3 -16 3 -24 1 -7 8 -11 17 -7 9 3 15 0 15 -9 0 -9 -6 -12 -15
-9 -8 4 -15 1 -15 -5 0 -6 -5 -11 -11 -11 -6 0 -8 9 -4 20 7 21 -10 28 -18 8
-4 -8 -6 -7 -6 4 -1 9 5 19 12 22 12 5 -20 40 -45 48 -6 2 -8 10 -4 17 6 10
12 9 25 -3 10 -9 23 -16 29 -16z m54 -122 c9 -7 19 -31 22 -53 6 -37 5 -39 -8
-20 -9 11 -19 25 -24 31 -15 16 -24 54 -15 54 5 0 16 -6 25 -12z"/>
<path d="M3180 3145 c0 -8 5 -15 10 -15 6 0 10 7 10 15 0 8 -4 15 -10 15 -5 0
-10 -7 -10 -15z"/>
<path d="M4462 3340 c0 -14 2 -19 5 -12 2 6 2 18 0 25 -3 6 -5 1 -5 -13z"/>
<path d="M3986 3101 c-4 -7 -5 -15 -2 -18 9 -9 19 4 14 18 -4 11 -6 11 -12 0z"/>
<path d="M2290 2970 c0 -5 5 -10 10 -10 6 0 10 5 10 10 0 6 -4 10 -10 10 -5 0
-10 -4 -10 -10z"/>
<path d="M3677 2954 c-3 -3 -3 -12 0 -20 3 -8 1 -14 -3 -14 -5 0 -8 -24 -6
-52 3 -50 7 -56 66 -113 l63 -60 11 -115 c7 -63 15 -153 18 -199 3 -53 11 -89
20 -98 8 -8 14 -21 14 -29 0 -8 3 -14 8 -15 4 0 28 -2 55 -5 34 -3 47 -1 48 8
0 7 4 3 9 -8 13 -33 60 -21 60 15 0 19 -3 22 -9 12 -16 -25 -39 -4 -46 43 -4
24 -5 48 -2 53 6 9 -2 80 -24 208 -6 39 -12 86 -13 105 0 19 -10 49 -22 65
-28 40 -40 70 -43 102 0 9 -4 13 -7 10 -4 -4 -14 1 -23 11 -23 25 -70 56 -116
77 -22 10 -43 20 -46 21 -3 2 -9 1 -12 -2z"/>
<path d="M2000 2936 c0 -8 -6 -17 -12 -19 -8 -3 -6 -6 5 -6 11 -1 17 6 17 19
0 11 -2 20 -5 20 -3 0 -5 -6 -5 -14z"/>
<path d="M2160 2874 c0 -3 10 -14 23 -25 24 -20 57 -25 57 -8 0 6 -9 8 -22 3
-23 -6 -23 -6 1 15 16 14 19 21 10 21 -8 0 -21 -6 -28 -12 -11 -10 -14 -10
-18 0 -5 12 -23 17 -23 6z"/>
<path d="M5000 2820 c0 -5 5 -10 10 -10 6 0 10 5 10 10 0 6 -4 10 -10 10 -5 0
-10 -4 -10 -10z"/>
<path d="M1413 2806 c-13 -6 -23 -19 -23 -28 0 -10 -6 -18 -13 -18 -7 0 -18
-9 -25 -20 -11 -19 -10 -20 25 -20 44 0 75 -16 56 -28 -8 -5 -8 -17 2 -45 15
-42 26 -57 32 -42 2 6 8 17 13 25 9 13 11 13 19 0 6 -8 13 -11 18 -7 4 5 1 13
-7 18 -11 8 -12 12 -2 16 6 2 12 19 11 36 l-1 32 -9 -32 c-11 -38 -33 -46 -23
-9 3 13 0 35 -7 48 -7 12 -12 33 -10 46 3 26 -16 30 -22 5 -2 -10 -3 -8 -2 5
3 28 -4 31 -32 18z m57 -107 c0 -11 -4 -19 -10 -19 -5 0 -10 6 -10 14 0 8 -3
23 -7 33 -6 16 -5 16 10 4 9 -7 17 -22 17 -32z"/>
<path d="M3677 2687 c2 -29 8 -74 14 -100 19 -100 5 -147 -41 -132 -27 9 -35
-14 -16 -49 9 -18 12 -37 7 -50 -5 -11 -6 -38 -3 -58 l4 -38 57 0 c48 1 59 4
75 26 16 23 17 38 11 157 -4 73 -8 152 -9 176 -3 47 -27 80 -76 106 l-27 14 4
-52z"/>
<path d="M4020 2724 c0 -8 -7 -22 -14 -30 -26 -26 -3 -322 26 -340 4 -3 8 -12
8 -20 0 -8 9 -24 20 -36 11 -12 20 -29 20 -38 0 -9 5 -21 12 -28 16 -16 48
-15 48 1 0 8 8 22 18 33 15 15 17 30 14 74 -3 30 -11 59 -18 65 -14 11 -44
107 -44 142 0 13 -7 38 -17 56 -10 19 -16 53 -15 85 1 31 -3 52 -9 52 -6 0 -9
-7 -5 -15 3 -8 1 -15 -5 -15 -5 0 -12 7 -15 15 -8 20 -24 19 -24 -1z"/>
<path d="M5000 2730 c0 -5 5 -10 11 -10 5 0 7 5 4 10 -3 6 -8 10 -11 10 -2 0
-4 -4 -4 -10z"/>
<path d="M1394 2695 c-4 -8 -15 -15 -26 -15 -10 0 -16 -4 -13 -10 3 -5 0 -10
-9 -10 -8 0 -17 -6 -20 -12 -4 -7 -4 -3 -2 10 2 12 0 22 -5 22 -5 0 -9 -4 -9
-9 0 -5 -6 -16 -14 -24 -8 -8 -18 -30 -21 -49 l-7 -36 46 -4 c40 -3 44 -1 29
9 -16 12 -16 14 2 27 12 8 16 20 13 34 -4 15 -2 19 8 15 8 -3 14 -14 14 -24 0
-12 7 -19 20 -19 22 0 24 10 11 58 -6 20 -6 32 0 32 5 0 9 5 9 10 0 16 -20 12
-26 -5z"/>
<path d="M5120 2700 c0 -5 5 -10 10 -10 6 0 10 -11 10 -25 0 -14 -5 -25 -12
-25 -6 0 -9 -2 -7 -5 3 -2 15 -2 27 2 17 4 21 10 16 26 -11 33 -44 61 -44 37z"/>
<path d="M4215 2617 c-4 -18 -5 -103 -3 -188 3 -134 6 -158 21 -173 10 -10 21
-31 24 -46 5 -27 8 -29 72 -34 89 -7 94 -7 107 -17 7 -6 11 21 12 89 1 77 -4
118 -26 202 -25 97 -29 105 -50 103 -14 -2 -21 1 -17 8 4 6 -2 13 -14 16 -11
3 -23 14 -26 24 -7 21 -35 26 -35 7 0 -10 -3 -9 -9 1 -7 11 -9 11 -14 0 -3 -9
-9 -4 -16 14 -14 35 -19 34 -26 -6z"/>
<path d="M4163 2575 c0 -38 2 -53 4 -32 2 20 2 52 0 70 -2 17 -4 1 -4 -38z"/>
<path d="M5120 2443 c0 -35 0 -36 20 -18 18 16 20 16 20 2 0 -9 10 -22 22 -28
l21 -12 -21 28 c-12 15 -22 36 -22 46 0 12 -7 19 -20 19 -16 0 -20 -7 -20 -37z"/>
<path d="M2879 2297 c6 -14 22 -49 36 -77 30 -59 35 -46 -55 -143 -25 -27 -51
-58 -58 -70 -15 -27 -7 -152 12 -182 14 -22 10 -92 -6 -112 -6 -7 -24 -13 -40
-13 -32 0 -140 -28 -148 -39 -3 -3 -41 -21 -85 -39 -44 -19 -91 -40 -105 -48
-53 -31 -137 -66 -182 -75 -38 -9 -58 -7 -98 6 -49 16 -62 29 -38 37 7 3 5 7
-6 11 -10 4 -15 3 -11 -3 3 -6 -1 -10 -10 -10 -16 0 -50 23 -97 64 -10 9 -35
29 -57 44 -22 16 -37 32 -34 36 3 3 -4 6 -16 6 -17 0 -21 4 -17 16 3 9 2 12
-5 9 -6 -4 -18 -1 -27 7 -9 8 -29 20 -44 28 -16 7 -28 17 -28 22 0 4 -9 8 -20
8 -11 0 -20 6 -20 13 -1 6 -46 34 -101 62 -77 38 -96 51 -82 57 12 6 8 6 -10
3 -19 -4 -36 1 -53 14 -14 11 -32 17 -40 14 -8 -3 -14 1 -14 10 0 9 -8 15 -17
15 -29 -1 -48 6 -54 21 -4 11 -8 10 -22 -3 -9 -10 -22 -14 -28 -10 -8 4 -7 9
2 15 9 6 1 6 -20 2 -25 -4 -32 -3 -27 5 4 7 3 12 -3 12 -5 0 -13 -4 -16 -10
-3 -5 -12 -10 -18 -10 -8 0 -8 3 1 9 11 6 9 9 -7 14 -11 2 -22 0 -25 -7 -3 -7
-8 -6 -15 4 -10 13 -12 13 -21 0 -8 -12 -10 -11 -10 8 0 14 -6 22 -16 22 -9 0
-24 8 -33 18 -9 9 -39 38 -67 64 l-52 47 -78 -28 c-150 -54 -331 -138 -454
-211 -79 -46 -205 -144 -248 -192 -20 -23 -41 -46 -47 -52 -51 -56 -123 -204
-110 -226 4 -7 1 -16 -6 -21 -12 -7 -12 -10 -1 -18 17 -11 17 -21 0 -32 -8 -6
-9 -12 -3 -16 9 -8 12 -30 16 -160 1 -29 5 -53 9 -53 10 0 30 -47 30 -69 0
-10 6 -31 14 -46 8 -15 17 -50 21 -76 4 -27 11 -49 16 -49 5 0 9 -13 9 -30 0
-16 5 -30 11 -30 6 0 9 -8 6 -19 -6 -23 10 -51 29 -51 8 0 12 -4 9 -10 -7 -12
10 -46 41 -79 13 -14 24 -31 24 -37 0 -6 8 -18 18 -27 14 -13 21 -14 30 -5 9
9 12 7 12 -10 0 -13 6 -22 15 -22 8 0 15 -7 15 -15 0 -18 38 -35 59 -27 7 3
17 -1 21 -8 10 -16 203 -15 208 1 2 5 12 9 23 9 10 0 19 4 19 8 0 4 11 9 25
10 37 3 135 49 141 67 7 17 40 20 50 4 3 -6 17 -9 29 -7 16 4 22 1 18 -9 -3
-7 -1 -13 5 -13 6 0 10 20 9 45 -1 30 3 50 15 61 16 16 17 15 14 -32 -2 -27 1
-52 7 -55 12 -8 47 1 47 12 0 5 18 9 40 9 23 0 40 5 40 11 0 16 71 4 82 -13 6
-10 8 -8 8 5 0 15 11 20 36 16 4 0 10 5 15 13 5 7 21 12 39 10 17 -2 30 1 30
7 0 19 18 12 25 -9 5 -16 15 -20 56 -20 38 0 49 -4 49 -16 0 -18 17 -37 43
-47 9 -3 17 -13 17 -21 0 -7 9 -16 20 -19 11 -3 19 -11 17 -19 -2 -7 -2 -10 0
-5 3 4 13 7 24 7 10 0 19 5 19 11 0 6 14 9 33 7 25 -2 34 2 42 20 12 27 29 28
57 2 12 -11 28 -20 36 -20 7 0 24 -8 36 -17 l23 -18 -21 -30 c-12 -16 -27 -34
-33 -38 -7 -4 -13 -13 -13 -19 0 -10 76 47 110 82 32 33 99 70 116 63 14 -5
16 -2 12 15 -5 18 -2 22 18 22 13 0 24 6 24 13 0 8 2 9 8 1 4 -7 20 -12 35
-12 21 0 31 7 38 26 18 47 28 53 52 32 11 -11 23 -17 26 -14 3 3 -1 9 -8 13
-17 11 -4 18 36 19 20 0 34 -5 38 -16 6 -15 8 -15 15 3 8 20 8 20 16 0 15 -37
47 -65 76 -65 26 0 28 -3 29 -42 1 -24 4 -33 6 -21 5 28 33 30 33 3 0 -13 7
-20 20 -20 11 0 20 5 20 10 0 15 40 12 41 -2 0 -7 4 -4 9 7 7 18 8 19 15 3 4
-10 13 -18 21 -18 8 0 14 -2 14 -5 0 -13 -75 -143 -102 -178 -17 -21 -27 -41
-23 -45 3 -4 10 0 15 8 5 8 23 35 42 59 18 24 38 51 43 60 6 9 15 19 21 23 7
4 26 30 43 57 18 27 38 52 46 55 8 3 15 14 15 25 0 10 7 21 15 25 8 3 15 12
15 20 0 10 6 13 16 9 9 -3 27 6 45 23 16 15 29 22 29 16 0 -7 5 -12 11 -12 6
0 9 7 6 15 -7 17 9 30 18 14 5 -6 13 -2 23 12 15 21 16 22 23 3 7 -17 8 -17 8
-1 1 20 21 24 21 3 0 -9 8 -12 25 -9 18 4 24 11 22 27 -2 16 3 20 21 19 13 -2
22 3 22 11 0 9 8 12 23 9 18 -4 19 -3 7 7 -11 9 -12 13 -2 17 6 2 12 13 12 24
0 10 -6 19 -12 20 -7 0 -4 4 7 8 11 5 35 6 53 3 33 -5 41 5 20 26 -9 9 -8 12
5 12 12 0 17 -8 17 -30 0 -16 5 -30 10 -30 6 0 10 -7 10 -15 0 -8 -4 -15 -10
-15 -5 0 -10 -6 -10 -14 0 -7 -7 -19 -15 -26 -8 -7 -17 -27 -21 -46 -3 -19
-10 -32 -14 -29 -5 3 -12 -9 -15 -27 -4 -18 -16 -44 -26 -57 -11 -13 -17 -26
-14 -29 7 -7 26 20 56 77 13 25 27 50 31 56 64 87 168 266 168 287 0 10 4 18
10 18 5 0 13 12 16 28 4 15 10 32 14 37 4 6 15 35 24 65 10 30 22 64 27 75 11
24 55 188 74 270 26 119 39 467 23 633 -3 41 -8 75 -10 76 -2 2 -57 10 -123
19 -66 8 -158 23 -205 32 -47 9 -116 20 -155 25 -38 4 -78 11 -88 15 -15 6
-16 4 -8 -18z m141 -871 c0 -8 -5 -18 -11 -22 -14 -8 -33 11 -25 25 10 16 36
13 36 -3z m-210 -120 c0 -22 -11 -46 -21 -46 -5 0 -9 14 -9 30 0 20 5 30 15
30 8 0 15 -6 15 -14z m415 -26 c-3 -6 1 -18 11 -27 16 -16 16 -16 10 5 -5 13
-3 22 3 22 15 0 41 -67 34 -88 -4 -11 1 -9 15 7 23 25 28 23 13 -7 -14 -28
-31 -87 -31 -109 0 -12 -3 -23 -7 -25 -5 -1 -19 -24 -32 -50 -13 -27 -28 -48
-32 -48 -5 0 -9 -6 -9 -14 0 -21 -26 -67 -34 -59 -3 4 -3 22 0 40 4 21 2 33
-5 33 -6 0 -12 -10 -12 -22 l-2 -23 -4 23 c-2 12 -10 22 -17 22 -10 0 -13 23
-13 93 -1 50 2 86 4 80 10 -26 23 -12 23 25 1 20 12 57 25 82 21 40 24 42 26
20 1 -21 2 -22 6 -5 3 11 10 23 17 27 15 10 18 10 11 -2z m-85 -70 c0 -5 -4
-10 -10 -10 -5 0 -10 5 -10 10 0 6 5 10 10 10 6 0 10 -4 10 -10z m-30 -140 c0
-5 -4 -10 -10 -10 -5 0 -10 5 -10 10 0 6 5 10 10 10 6 0 10 -4 10 -10z m-1670
-80 c0 -32 -14 -40 -24 -14 -10 27 -7 44 9 44 10 0 15 -10 15 -30z m1600 -20
c0 -5 -4 -10 -10 -10 -5 0 -10 5 -10 10 0 6 5 10 10 10 6 0 10 -4 10 -10z m50
0 c0 -5 -5 -10 -11 -10 -5 0 -7 5 -4 10 3 6 8 10 11 10 2 0 4 -4 4 -10z m-148
-106 l-6 -29 -7 25 c-4 14 -7 33 -8 43 -1 16 1 16 13 4 9 -8 12 -24 8 -43z
m-2610 -26 c-9 -9 -12 -4 -11 23 0 32 1 33 11 11 8 -17 8 -26 0 -34z m2635 15
c-3 -10 -5 -4 -5 12 0 17 2 24 5 18 2 -7 2 -21 0 -30z m-57 23 c0 -11 -19 -15
-25 -6 -3 5 1 10 9 10 9 0 16 -2 16 -4z m105 -25 c3 -5 1 -12 -5 -16 -5 -3
-10 1 -10 9 0 18 6 21 15 7z m-145 -11 c8 -5 12 -11 10 -14 -3 -2 -14 2 -24
10 -22 15 -10 19 14 4z m-2520 -130 c0 -14 -46 -60 -60 -60 -15 0 -13 8 11 41
20 28 49 39 49 19z m78 -49 c-15 -24 -28 -27 -28 -6 0 13 31 38 38 30 2 -2 -3
-12 -10 -24z"/>
<path d="M6345 2241 c-3 -5 -1 -12 5 -16 5 -3 10 1 10 9 0 18 -6 21 -15 7z"/>
<path d="M3523 1923 c2 -311 -4 -384 -45 -546 -11 -42 -24 -80 -29 -83 -12 -7
-11 -44 1 -44 14 0 26 29 34 77 9 63 36 113 60 113 44 0 136 25 141 38 3 8 1
42 -4 75 -6 34 -9 85 -9 112 1 28 -2 99 -7 159 -6 86 -12 114 -26 130 -12 12
-19 35 -20 60 0 23 -4 50 -9 61 -7 18 -8 19 -15 3 -8 -19 -35 -25 -35 -8 0 21
25 90 32 90 5 0 8 6 8 13 0 20 -33 47 -58 47 l-21 0 2 -297z"/>
<path d="M3655 2188 c-6 -7 -9 -54 -7 -106 3 -79 7 -98 28 -129 19 -29 24 -48
24 -101 0 -49 4 -68 17 -77 10 -8 14 -19 9 -30 -3 -10 -7 -77 -9 -149 l-2
-131 25 3 c14 2 29 8 35 13 10 10 13 174 4 257 -5 48 -2 58 22 88 27 34 27 36
22 152 -5 129 -21 205 -43 211 -38 12 -116 11 -125 -1z"/>
<path d="M5760 2181 c0 -5 7 -12 16 -15 24 -9 27 -7 10 9 -17 17 -26 19 -26 6z"/>
<path d="M3870 2166 c0 -10 -6 -13 -16 -9 -13 5 -15 1 -10 -23 3 -16 8 -85 11
-154 5 -107 3 -129 -12 -157 -10 -18 -20 -33 -24 -33 -7 0 -5 -41 5 -165 5
-58 4 -100 -3 -117 l-11 -28 136 0 136 0 -6 223 c-8 282 -15 384 -31 423 -12
29 -19 33 -67 38 -29 4 -65 9 -80 12 -21 4 -28 2 -28 -10z"/>
<path d="M4120 2120 c-8 -5 -10 -10 -5 -10 6 0 3 -5 -5 -10 -13 -8 -15 -40
-12 -207 2 -111 8 -210 14 -226 6 -16 8 -60 5 -107 -6 -91 -7 -90 86 -91 34 0
86 -4 115 -8 35 -5 52 -4 52 3 -1 31 -74 399 -100 497 -17 65 -33 113 -42 124
-4 5 -8 17 -8 27 0 31 -17 20 -23 -14 -3 -18 -4 -161 -2 -318 4 -257 3 -280
-9 -235 -10 33 -16 136 -21 310 -3 142 -9 263 -11 267 -7 10 -16 10 -34 -2z"/>
<path d="M5842 2100 c0 -14 2 -19 5 -12 2 6 2 18 0 25 -3 6 -5 1 -5 -13z"/>
<path d="M4295 2052 c3 -30 9 -69 14 -86 5 -17 17 -76 26 -131 10 -55 23 -127
30 -160 7 -33 19 -87 25 -120 7 -33 24 -96 38 -140 27 -83 59 -126 216 -295
97 -104 136 -149 136 -155 0 -3 15 -23 34 -43 76 -81 128 -147 273 -347 82
-113 183 -318 183 -375 1 -3 14 -49 31 -103 l31 -97 534 0 534 0 0 381 0 380
-22 -6 c-13 -4 -32 -12 -43 -19 -11 -7 -39 -18 -62 -26 -37 -11 -45 -11 -60 2
-25 20 -138 78 -154 78 -8 0 -26 6 -41 14 -33 17 -162 40 -189 33 -12 -3 -37
0 -58 7 -20 8 -61 17 -91 20 -159 21 -350 85 -428 145 -15 12 -43 31 -62 44
-20 13 -36 33 -38 46 -3 17 -6 20 -12 11 -12 -19 -112 78 -105 101 3 10 1 20
-5 24 -5 3 -10 1 -10 -5 0 -7 -4 -10 -9 -8 -16 5 -121 130 -116 138 2 4 -11
22 -30 40 -19 19 -35 38 -35 43 0 5 -11 18 -25 29 -15 12 -25 30 -26 46 0 15
-3 21 -6 13 -4 -10 -17 -1 -44 29 -21 24 -36 48 -32 54 3 6 3 8 -2 4 -4 -4
-14 -1 -21 7 -8 7 -19 15 -26 17 -8 3 -14 54 -19 164 -4 87 -12 171 -17 186
-11 26 -54 63 -101 88 -26 14 -64 19 -158 24 l-62 3 4 -55z m1510 -1552 c7
-21 0 -40 -14 -40 -11 0 -19 31 -14 48 7 18 21 15 28 -8z m341 -80 c10 -11 28
-29 38 -40 11 -11 17 -22 14 -26 -7 -6 -88 66 -88 79 0 13 16 7 36 -13z m-576
-11 c0 -24 -23 -21 -28 4 -2 10 3 17 12 17 10 0 16 -9 16 -21z"/>
<path d="M5702 2060 c0 -14 2 -19 5 -12 2 6 2 18 0 25 -3 6 -5 1 -5 -13z"/>
<path d="M4370 1425 c0 -8 -7 -18 -15 -21 -8 -4 -12 -10 -9 -15 3 -5 -7 -21
-21 -36 -14 -16 -40 -52 -58 -80 -17 -29 -37 -53 -44 -53 -6 0 -21 -17 -34
-37 -36 -61 -58 -81 -81 -75 -20 5 -20 4 -3 -21 17 -26 17 -27 -10 -37 -14 -5
-34 -10 -42 -10 -9 0 -56 -5 -105 -11 -62 -8 -88 -16 -88 -25 0 -8 -6 -14 -12
-14 -10 0 -10 -2 -1 -8 10 -6 10 -17 3 -42 -14 -48 -13 -60 5 -60 8 0 15 7 15
16 0 14 3 14 16 4 30 -26 37 -51 17 -65 -13 -10 -20 -10 -26 -2 -5 9 -11 7
-21 -5 -7 -10 -15 -16 -17 -13 -3 2 -5 -8 -4 -23 0 -17 -6 -28 -17 -30 -14 -3
-18 3 -18 27 0 17 -4 31 -10 31 -6 0 -11 32 -11 73 l-1 72 -9 -59 c-9 -64 -18
-84 -20 -45 l-1 24 -7 -25 c-4 -14 -15 -26 -24 -28 -21 -4 -37 34 -37 89 0 21
-4 39 -9 39 -5 0 -13 10 -16 21 -7 21 -12 21 -96 17 -65 -4 -91 -2 -99 7 -8 9
-8 15 0 20 14 9 13 26 -2 23 -20 -3 -58 12 -58 24 0 5 7 7 16 4 13 -5 14 -4 5
7 -8 10 -8 22 0 46 6 17 8 39 5 47 -4 9 -1 23 5 31 7 7 10 16 7 19 -10 9 -35
-41 -83 -163 -27 -68 -52 -123 -57 -123 -4 0 -8 -9 -8 -20 0 -25 17 -26 25 -1
3 10 16 30 28 44 l22 25 75 -46 c41 -25 77 -49 78 -54 2 -4 7 -8 12 -8 8 0
189 -118 223 -146 9 -8 21 -14 25 -14 4 0 19 -11 34 -24 l26 -25 58 63 c33 35
64 70 71 77 6 8 34 36 62 63 62 57 178 200 287 350 51 71 80 104 82 93 2 -9 8
-17 13 -17 15 0 46 -33 53 -57 5 -16 -1 -39 -20 -73 -15 -28 -24 -53 -21 -57
4 -3 7 -1 7 6 0 7 4 10 9 7 15 -9 1 -44 -31 -78 -45 -48 -50 -71 -48 -215 0
-76 -3 -133 -8 -133 -5 0 -13 -24 -16 -52 -19 -146 -21 -153 -36 -153 -12 0
-15 21 -17 120 -3 140 -6 154 -33 184 l-20 24 -9 -24 c-5 -13 -10 -17 -10 -9
-1 8 -21 -6 -50 -34 -29 -29 -47 -54 -44 -63 3 -8 0 -13 -8 -11 -9 2 -13 -4
-11 -16 2 -11 -1 -15 -8 -11 -6 4 -19 0 -28 -9 -9 -8 -32 -28 -51 -44 l-34
-28 39 -30 c45 -35 74 -48 74 -33 0 6 4 8 10 4 5 -3 7 -11 4 -18 -2 -7 15 -28
38 -47 24 -19 45 -38 46 -42 2 -4 9 -8 15 -8 7 0 23 -9 37 -20 27 -21 45 -26
35 -9 -10 15 15 69 31 69 21 0 15 -90 -6 -90 -10 -1 -7 -7 10 -21 14 -11 33
-26 42 -34 9 -7 27 -19 40 -26 13 -7 29 -19 36 -28 11 -13 11 -12 2 8 -8 16
-9 26 -2 30 6 4 12 48 14 98 2 51 7 95 11 99 4 4 7 65 7 136 0 70 4 128 9 128
16 0 22 -111 17 -317 -4 -150 -2 -203 7 -207 7 -2 3 -5 -7 -5 -15 -1 -5 -15
42 -61 63 -60 70 -78 52 -124 l-10 -26 86 0 c87 0 110 8 159 53 39 37 156 89
183 82 14 -3 54 -35 89 -71 l65 -64 69 0 c38 0 69 2 69 5 0 24 -92 269 -125
335 -14 27 -25 54 -25 60 0 10 -153 240 -194 292 -11 14 -32 41 -46 59 -94
124 -246 308 -359 435 -48 54 -86 110 -111 162 -38 80 -60 107 -60 77z"/>
<path d="M4305 1146 c-31 -34 -67 -87 -63 -92 3 -3 16 11 28 30 12 20 25 36
30 36 8 0 23 30 18 35 -2 2 -8 -2 -13 -9z"/>
<path d="M4391 1087 c-13 -21 -12 -21 5 -5 10 10 16 20 13 22 -3 3 -11 -5 -18
-17z"/>
<path d="M4330 950 c0 -5 5 -10 10 -10 6 0 10 5 10 10 0 6 -4 10 -10 10 -5 0
-10 -4 -10 -10z"/>
<path d="M3276 881 c-3 -5 -27 -51 -53 -102 -25 -52 -67 -125 -92 -164 -24
-38 -56 -88 -70 -110 -14 -22 -29 -42 -32 -45 -12 -11 -18 -40 -8 -40 6 0 13
9 16 20 3 11 12 20 19 20 8 0 14 7 14 14 0 8 11 27 25 42 14 15 25 35 25 45 0
11 5 19 10 19 6 0 10 6 10 14 0 8 4 16 8 18 13 5 52 74 52 92 0 9 4 16 9 16 5
0 17 18 27 40 10 22 22 40 27 40 5 0 7 7 4 14 -4 9 2 17 14 21 12 4 19 15 19
31 0 24 -14 32 -24 15z"/>
<path d="M2960 770 c0 -5 5 -10 10 -10 6 0 10 5 10 10 0 6 -4 10 -10 10 -5 0
-10 -4 -10 -10z"/>
<path d="M2145 690 c3 -5 1 -10 -4 -10 -6 0 -11 -5 -11 -11 0 -8 5 -8 15 1 17
14 20 30 4 30 -5 0 -7 -4 -4 -10z"/>
<path d="M3425 683 c-11 -3 -23 -11 -28 -19 -4 -7 -14 -11 -22 -8 -11 5 -15
-2 -15 -25 0 -17 1 -33 3 -34 1 -2 -4 -11 -12 -20 -8 -11 -9 -17 -2 -17 7 0 8
-8 1 -26 -6 -15 -6 -32 -1 -42 10 -19 -7 -92 -21 -92 -5 0 -8 -9 -8 -20 0 -11
-4 -20 -10 -20 -5 0 -10 -14 -10 -31 0 -20 4 -29 13 -26 6 2 11 12 11 21 -2
18 12 22 18 6 4 -14 65 16 77 38 5 9 13 14 16 10 4 -4 25 4 46 18 21 13 43 24
48 24 5 0 11 3 13 8 2 4 21 19 43 34 22 15 53 39 68 52 l28 24 -27 21 c-15 12
-33 21 -40 21 -8 0 -14 5 -14 10 0 6 -7 10 -15 10 -8 0 -15 5 -15 10 0 6 -6
10 -14 10 -8 0 -16 3 -18 8 -4 8 -82 63 -89 61 -2 -1 -13 -4 -24 -6z"/>
<path d="M2160 656 c0 -9 5 -16 10 -16 6 0 10 4 10 9 0 6 -4 13 -10 16 -5 3
-10 -1 -10 -9z"/>
<path d="M120 653 c0 -7 -8 -12 -17 -11 -64 5 -66 2 -58 -59 4 -32 8 -76 10
-98 4 -90 2 -85 45 -85 54 0 130 21 130 36 0 7 9 15 19 19 28 9 34 35 13 54
-26 22 -42 55 -42 85 0 14 -4 26 -10 26 -5 0 -10 -4 -10 -10 0 -5 -9 -10 -20
-10 -20 0 -26 11 -13 24 4 3 8 13 9 21 2 11 -2 12 -17 2 -16 -10 -21 -9 -29 3
-6 10 -10 11 -10 3z m80 -83 c0 -5 -2 -10 -4 -10 -3 0 -8 5 -11 10 -3 6 -1 10
4 10 6 0 11 -4 11 -10z"/>
<path d="M240 570 c0 -5 5 -10 10 -10 6 0 10 5 10 10 0 6 -4 10 -10 10 -5 0
-10 -4 -10 -10z"/>
<path d="M2990 556 c-6 -9 -10 -21 -8 -28 3 -8 9 -4 17 10 15 28 9 39 -9 18z"/>
<path d="M3698 563 c7 -3 16 -2 19 1 4 3 -2 6 -13 5 -11 0 -14 -3 -6 -6z"/>
<path d="M3146 532 c-20 -4 -46 -25 -46 -37 0 -4 -6 -13 -14 -21 -8 -7 -12
-24 -9 -36 3 -16 2 -19 -5 -10 -11 17 -21 -24 -28 -113 -4 -58 -19 -102 -39
-117 -17 -13 -45 -9 -45 7 0 8 -4 15 -10 15 -27 0 3 135 33 148 4 2 7 8 7 14
0 6 -6 6 -15 -2 -8 -7 -15 -17 -15 -22 0 -10 -38 -67 -60 -88 -9 -8 -27 -31
-40 -50 -13 -19 -27 -37 -30 -40 -3 -3 -19 -23 -35 -45 -85 -113 -94 -138 -48
-133 22 2 29 9 33 32 5 27 10 30 62 41 31 6 64 17 73 25 9 8 26 15 37 17 12 2
29 12 38 23 9 11 20 16 24 12 4 -4 12 1 17 11 6 9 20 17 33 17 12 0 35 14 51
30 20 21 38 30 60 30 21 0 43 11 68 34 38 35 48 66 21 66 -33 0 -47 28 -36 70
6 27 6 38 0 34 -6 -4 -8 2 -3 15 5 15 2 21 -9 21 -10 0 -16 9 -16 21 0 16 -4
19 -22 14 -16 -4 -19 -3 -9 3 16 12 3 20 -23 14z"/>
<path d="M2931 451 c-24 -33 -28 -56 -5 -26 20 26 36 55 30 55 -3 0 -14 -13
-25 -29z"/>
<path d="M1722 430 c-7 -11 -9 -20 -4 -20 4 0 13 9 20 20 7 11 9 20 4 20 -4 0
-13 -9 -20 -20z"/>
<path d="M2890 385 c-7 -9 -11 -17 -9 -20 3 -2 10 5 17 15 14 24 10 26 -8 5z"/>
<path d="M3886 363 c-3 -21 -6 -55 -6 -76 0 -21 -7 -45 -15 -53 -8 -9 -15 -25
-15 -37 0 -14 -3 -18 -8 -10 -4 6 -8 -6 -8 -28 -1 -33 3 -43 28 -61 20 -14 28
-27 25 -39 -3 -11 -1 -19 4 -19 5 0 9 -9 9 -20 0 -17 7 -20 49 -20 30 0 51 5
54 13 4 9 6 9 6 0 1 -14 137 -19 158 -5 6 4 15 21 19 37 7 30 13 39 51 80 13
14 19 27 13 30 -6 3 -10 14 -10 24 0 10 -12 24 -27 32 -16 8 -30 17 -33 20
-10 13 -100 79 -100 74 0 -3 -12 6 -27 20 -15 14 -32 25 -38 25 -5 0 -2 -5 8
-11 18 -11 23 -29 8 -29 -5 0 -16 7 -25 15 -8 8 -20 15 -26 15 -6 0 -25 13
-43 30 -18 16 -35 30 -38 30 -4 0 -9 -17 -13 -37z m249 -113 c3 -5 1 -10 -4
-10 -6 0 -11 5 -11 10 0 6 2 10 4 10 3 0 8 -4 11 -10z"/>
<path d="M2400 270 c0 -5 5 -10 11 -10 5 0 7 5 4 10 -3 6 -8 10 -11 10 -2 0
-4 -4 -4 -10z"/>
<path d="M2765 200 c-3 -5 -1 -10 4 -10 6 0 11 5 11 10 0 6 -2 10 -4 10 -3 0
-8 -4 -11 -10z"/>
<path d="M2730 145 c-7 -9 -10 -18 -7 -21 3 -3 10 4 17 15 13 25 8 27 -10 6z"/>
<path d="M4314 71 c0 -11 5 -19 10 -18 5 1 12 -7 14 -18 3 -16 1 -18 -9 -7
-19 18 -28 15 -22 -8 4 -17 14 -20 54 -20 39 0 47 3 43 15 -4 8 -9 15 -13 15
-3 0 -21 14 -40 30 -18 17 -34 30 -35 30 -1 0 -2 -9 -2 -19z"/>
</g>
</svg>
